<?xml version="1.0" standalone="no"?>
<!DOCTYPE svg PUBLIC "-//W3C//DTD SVG 20010904//EN"
 "http://www.w3.org/TR/2001/REC-SVG-20010904/DTD/svg10.dtd">
<svg version="1.0" xmlns="http://www.w3.org/2000/svg"
 width="447.000000pt" height="447.000000pt" viewBox="0 0 447.000000 447.000000"
 preserveAspectRatio="xMidYMid meet">
<metadata>
Created by potrace 1.14, written by Peter Selinger 2001-2017
</metadata>
<g transform="translate(0.000000,447.000000) scale(0.100000,-0.100000)"
fill="#000000" stroke="none">
<path d="M2005 4092 c-2 -3 -26 -6 -52 -8 -27 -2 -61 -5 -78 -8 -16 -2 -55 -7
-85 -11 -30 -4 -57 -10 -60 -14 -3 -3 -14 -6 -25 -6 -11 1 -41 -5 -68 -11 -26
-7 -50 -13 -52 -13 -3 -1 -6 -1 -7 -2 -6 -1 -35 -9 -78 -19 -24 -6 -49 -15
-56 -20 -6 -6 -14 -7 -17 -3 -4 3 -13 0 -22 -7 -8 -7 -15 -10 -15 -7 0 3 -12
0 -27 -8 -15 -8 -30 -12 -35 -9 -4 3 -8 1 -8 -4 0 -5 -6 -9 -12 -9 -23 0 -321
-141 -326 -155 -2 -4 -8 -8 -13 -8 -6 0 -37 -18 -69 -40 -32 -22 -63 -40 -69
-40 -5 0 -11 -3 -13 -7 -1 -5 -22 -21 -45 -37 -24 -16 -43 -33 -43 -37 0 -5
-4 -9 -10 -9 -11 0 -42 -24 -76 -60 -13 -14 -24 -21 -24 -17 0 4 -45 -37 -100
-92 -55 -54 -100 -101 -100 -105 0 -3 -8 -14 -17 -24 -25 -26 -77 -93 -82
-105 -2 -5 -12 -19 -22 -31 -25 -29 -99 -152 -99 -165 0 -6 -4 -11 -10 -11 -5
0 -10 -9 -10 -19 0 -11 -4 -22 -8 -25 -5 -3 -21 -36 -36 -73 -15 -37 -32 -77
-36 -88 -19 -45 -54 -172 -54 -192 0 -13 -3 -23 -6 -23 -3 0 -6 -8 -7 -17 -1
-10 -4 -31 -7 -48 -21 -104 -28 -451 -9 -464 4 -3 9 -28 11 -55 1 -27 9 -76
18 -110 9 -33 18 -72 21 -86 2 -13 9 -30 15 -37 6 -7 8 -13 4 -13 -8 0 18 -69
65 -168 21 -46 39 -87 39 -93 0 -5 5 -9 10 -9 6 0 10 -6 10 -13 0 -47 285
-417 310 -402 4 3 10 -4 13 -15 3 -11 12 -20 20 -20 9 0 19 -9 22 -20 3 -11
10 -20 13 -20 4 0 28 -18 54 -41 26 -22 50 -40 53 -39 3 0 19 -13 36 -31 16
-17 29 -27 29 -23 0 5 4 4 8 -1 4 -6 28 -24 54 -40 27 -17 48 -33 48 -37 0 -5
4 -8 10 -8 5 0 35 -16 67 -37 31 -20 63 -36 70 -36 7 0 13 -4 13 -7 0 -16 332
-163 366 -163 8 0 14 -4 14 -7 0 -7 21 -13 80 -26 8 -1 39 -11 69 -20 30 -9
64 -18 75 -19 12 -1 22 -4 24 -5 1 -1 10 -3 20 -4 9 -1 22 -4 27 -7 6 -3 26
-6 45 -8 19 -1 37 -5 40 -9 3 -4 21 -8 40 -9 51 -2 155 -11 155 -13 0 -9 73
-5 84 3 12 10 13 9 6 -2 -6 -11 -4 -13 8 -8 10 4 17 2 17 -5 0 -7 4 -7 14 1
11 9 15 9 20 -1 5 -10 7 -10 12 0 3 6 10 9 16 6 9 -6 222 -8 249 -2 8 2 17 8
21 13 5 6 8 6 8 -2 0 -12 17 -12 38 0 7 5 12 3 12 -3 0 -6 4 -8 10 -5 5 3 24
8 42 10 18 2 53 6 78 9 59 7 102 15 120 22 14 6 44 11 111 18 14 2 30 5 35 8
5 2 29 10 54 17 25 8 52 16 60 19 23 8 44 13 58 14 6 1 12 6 12 11 0 6 3 8 6
4 4 -3 19 0 34 8 15 8 30 11 34 8 3 -4 6 0 6 7 0 7 3 11 6 7 4 -3 19 0 35 9
16 8 29 12 29 9 0 -4 12 2 28 13 15 11 29 20 32 20 3 -1 26 9 52 21 26 11 52
21 58 21 6 0 8 5 5 10 -3 6 1 10 9 10 15 0 96 45 149 82 15 11 27 16 27 12 0
-4 7 1 15 12 8 10 15 15 15 10 0 -5 9 1 19 13 11 12 22 22 26 21 9 -2 175 122
175 131 0 4 9 11 20 14 11 4 18 11 15 16 -4 5 -2 9 3 9 8 0 87 75 156 150 46
50 106 127 106 136 0 5 9 15 20 22 11 7 20 16 20 22 0 5 20 40 44 77 44 69
116 212 116 232 0 6 4 11 9 11 6 0 8 9 6 20 -2 11 0 20 6 20 5 0 9 8 9 18 0
10 3 22 7 26 5 4 8 11 9 14 2 20 18 68 25 77 4 6 7 13 7 18 0 24 15 87 20 87
4 0 8 15 9 33 0 17 4 46 7 62 21 107 29 326 12 337 -8 5 -7 8 2 8 8 0 10 5 6
12 -4 6 -9 30 -10 52 -1 23 -3 41 -4 41 -1 0 -3 14 -5 30 -5 43 -14 88 -30
148 -2 4 -4 10 -5 15 -1 4 -2 11 -1 16 1 4 -4 14 -10 22 -6 8 -8 14 -4 14 4 0
2 7 -5 15 -7 8 -10 15 -7 15 3 0 -1 16 -9 35 -8 19 -13 37 -12 40 2 2 -5 13
-14 24 -9 11 -14 21 -12 24 6 6 -46 117 -63 135 -6 6 -15 21 -18 32 -3 11 -11
20 -16 20 -6 0 -8 4 -5 9 3 4 -3 19 -14 31 -11 13 -20 26 -20 30 0 9 -134 197
-161 225 -10 11 -41 43 -68 72 -27 29 -51 50 -55 47 -3 -2 -4 -1 -1 3 6 8 -15
34 -24 29 -4 -3 -16 9 -26 25 -11 16 -24 29 -30 29 -5 0 -20 11 -32 23 -12 13
-41 36 -65 53 -24 16 -44 32 -46 37 -2 4 -9 7 -15 7 -7 0 -23 12 -36 25 -13
14 -26 24 -28 21 -3 -2 -13 3 -24 12 -11 9 -22 16 -25 14 -3 -2 -14 7 -25 19
-10 12 -19 19 -19 15 0 -4 -13 2 -29 13 -16 12 -36 21 -45 21 -9 0 -16 4 -16
8 0 7 -43 27 -64 29 -5 1 -12 5 -15 10 -3 4 -15 15 -25 23 -18 13 -19 13 -11
0 5 -10 1 -8 -13 4 -12 10 -28 16 -37 12 -9 -3 -13 -2 -10 4 6 9 -8 14 -27 11
-5 0 -8 4 -8 9 0 6 -8 10 -18 10 -10 0 -22 3 -26 8 -4 4 -11 7 -14 8 -4 0 -24
8 -45 17 -21 9 -41 16 -45 15 -4 -1 -16 2 -27 6 -64 25 -94 34 -130 41 -45 9
-44 9 -65 18 -8 4 -31 8 -50 10 -19 3 -42 7 -50 10 -8 3 -37 8 -65 11 -27 3
-63 8 -79 11 -15 3 -49 8 -75 11 -60 8 -519 13 -526 6z"/>
</g>
</svg>
